<?xml version="1.0" encoding="iso-8859-1"?>
<!-- Generator: Adobe Illustrator 19.0.0, SVG Export Plug-In . SVG Version: 6.00 Build 0)  -->
<svg xmlns="http://www.w3.org/2000/svg" xmlns:xlink="http://www.w3.org/1999/xlink" version="1.1" id="Layer_1" x="0px" y="0px" viewBox="0 0 485.526 485.526" style="enable-background:new 0 0 485.526 485.526;" xml:space="preserve" width="512px" height="512px">
<g>
	<g>
		<path d="M358.267,224.486c-1.952-3.968-6.74-5.608-10.708-3.652c-3.964,1.948-5.6,6.74-3.652,10.708    c17.676,35.988,26.64,67.232,26.64,92.868c0,77.812-63.304,141.116-141.116,141.116S88.315,402.222,88.315,324.41    c0-95.384,114.9-226.412,142.516-256.524c4.18,4.784,10.412,12.04,17.912,21.188c2.808,3.42,7.848,3.92,11.26,1.112    c3.416-2.804,3.916-7.844,1.112-11.26c-14.308-17.436-23.828-27.884-24.228-28.32c-1.492-1.628-3.588-2.572-5.796-2.604    c-2.172,0.052-4.328,0.856-5.864,2.444C218.983,56.91,72.319,210.082,72.319,324.41c0,86.632,70.484,157.116,157.116,157.116    c86.636,0,157.116-70.484,157.112-157.116C386.547,296.31,377.031,262.69,358.267,224.486z" fill="#888888"/>
	</g>
</g>
<g>
	<g>
		<path d="M329.679,6.27c-3.076-2.996-7.972-3.028-11.084-0.076c-3.412,3.236-83.612,79.96-83.612,143.816    c0,49.14,39.976,89.116,89.116,89.116s89.116-39.976,89.112-89.116C413.211,88.374,333.091,9.594,329.679,6.27z M324.103,223.126    c-40.316,0-73.116-32.8-73.116-73.116c0-47.94,55.096-108.264,73.044-126.644c17.9,18.748,73.184,80.4,73.188,126.644    C397.219,190.326,364.419,223.126,324.103,223.126z" fill="#888888"/>
	</g>
</g>
<g>
	<g>
		<path d="M417.207,150.006c0-63.3-81.28-143.228-84.74-146.6c-4.076-3.972-10.384-4.536-15.1-1.344    c-1.672,1.128-37.016,25.34-62.36,64.608c-11.004-12.944-16.716-18.776-17.02-19.084c-2.276-2.316-5.364-3.652-8.64-3.584    c-3.248,0.024-6.344,1.36-8.588,3.708c-6.224,6.512-152.44,160.812-152.44,276.7c0,88.84,72.276,161.116,161.116,161.116    s161.116-72.276,161.108-161.12c0-27.18-6.78-54.508-21.824-87.348C397.803,221.126,417.207,187.174,417.207,150.006z     M229.439,461.526c-75.608,0-137.116-61.512-137.116-137.116c0-90.94,105.688-215.596,137.1-250.632    c4.376,4.964,10.412,12,18.052,21.344c2.556,3.128,6.524,4.772,10.536,4.34c4.02-0.42,7.556-2.836,9.412-6.424    c16.152-31.232,42.424-54.692,55.496-65.128c24.724,26.036,70.3,82.256,70.3,122.1c0,31.568-18.724,60.908-44.516,69.764    c-3.268,1.12-5.892,3.596-7.204,6.788c-1.312,3.196-1.184,6.8,0.348,9.892c17.088,34.484,24.708,61.612,24.708,87.956    C366.555,400.018,305.047,461.526,229.439,461.526z" fill="#888888"/>
	</g>
</g>
<g>
	<g>
		<path d="M322.987,124.002c-4.4,0-8,5.4-8,12v24c0,6.6,3.6,12,8,12c4.4,0,8-5.4,8-12v-24    C330.987,129.402,327.387,124.002,322.987,124.002z" fill="#888888"/>
	</g>
</g>
<g>
	<g>
		<path d="M334.987,140.002h-24c-6.6,0-12,3.6-12,8c0,4.4,5.4,8,12,8h24c6.6,0,12-3.6,12-8    C346.987,143.602,341.587,140.002,334.987,140.002z" fill="#888888"/>
	</g>
</g>
<g>
	<g>
		<path d="M265.887,295.682c-4.952-4.952-11.532-7.68-18.536-7.68c-6.156,0-11.984,2.108-16.672,5.98    c-4.68-3.872-10.512-5.98-16.668-5.98c-7,0-13.584,2.728-18.532,7.676c-10.22,10.224-10.22,26.852,0,37.072l29.548,29.548    c1.564,1.564,3.608,2.344,5.656,2.344c2.048,0,4.092-0.78,5.656-2.34l29.548-29.548    C276.107,322.53,276.107,305.902,265.887,295.682z M254.571,321.438l-23.888,23.892l-23.892-23.892    c-3.984-3.98-3.984-10.46,0-14.444c1.928-1.928,4.492-2.992,7.22-2.992c2.732,0,5.296,1.064,7.224,2.996l3.792,3.788    c3.124,3.12,8.192,3.12,11.312-0.004l3.788-3.788c3.86-3.856,10.588-3.856,14.444,0    C258.555,310.974,258.555,317.454,254.571,321.438z" fill="#888888"/>
	</g>
</g>
<g>
</g>
<g>
</g>
<g>
</g>
<g>
</g>
<g>
</g>
<g>
</g>
<g>
</g>
<g>
</g>
<g>
</g>
<g>
</g>
<g>
</g>
<g>
</g>
<g>
</g>
<g>
</g>
<g>
</g>
</svg>
