<?xml version="1.0" encoding="iso-8859-1"?>
<!-- Generator: Adobe Illustrator 19.0.0, SVG Export Plug-In . SVG Version: 6.00 Build 0)  -->
<svg xmlns="http://www.w3.org/2000/svg" xmlns:xlink="http://www.w3.org/1999/xlink" version="1.1" id="Capa_1" x="0px" y="0px" viewBox="0 0 512 512" style="enable-background:new 0 0 512 512;" xml:space="preserve" width="512px" height="512px">
<g>
	<g>
		<path d="M359.2,412.424l-8-16c-0.852-1.685-2.267-3.018-4-3.768l-53.112-22.976l-4.276-13.256    C303.648,345.238,312,326.683,312,304v-16v-48c0-2.122-0.844-4.156-2.344-5.656C294.713,221.702,275.555,215.152,256,216    c-19.555-0.848-38.712,5.702-53.656,18.344c-1.5,1.5-2.344,3.534-2.344,5.656v48v16c0,22.68,8.35,41.232,22.182,52.419    l-4.278,13.261l-53.064,22.976c-1.733,0.75-3.148,2.083-4,3.768l-8,16c-0.554,1.111-0.841,2.335-0.84,3.576v96h16v-94.112    l5.84-11.712l48.173-20.851L248,411.312V440h16v-28.688l25.985-25.985l48.167,20.849L344,417.888V512h16v-96    C360.014,414.762,359.74,413.538,359.2,412.424z M216,243.728c11.729-8.102,25.753-12.214,40-11.728    c14.247-0.486,28.271,3.626,40,11.728v35.117c-4-1.052-8-3.053-8-6.845c0-4.418-3.582-8-8-8h-48c-4.418,0-8,3.582-8,8    c0,3.792-4,5.792-8,6.845V243.728z M256,396.688l-22.697-22.697l3.05-9.461c6.011,2.258,12.599,3.47,19.647,3.47    c7.046,0,13.633-1.211,19.643-3.469l3.053,9.46L256,396.688z M256,352c-29.52,0-40-25.856-40-48v-8.752    c9.621-0.918,18.116-6.662,22.552-15.248h34.896c4.436,8.586,12.931,14.33,22.552,15.248V304C296,326.144,285.52,352,256,352z" fill="#888888"/>
	</g>
</g>
<g>
	<g>
		<rect x="192" y="472" width="16" height="40" fill="#888888"/>
	</g>
</g>
<g>
	<g>
		<rect x="304" y="472" width="16" height="40" fill="#888888"/>
	</g>
</g>
<g>
	<g>
		<path d="M496,120H352v16h144v176h-80c-2.122,0-4.156,0.844-5.656,2.344L376,348.688V320c0-4.418-3.582-8-8-8h-40v16h32v40    c-0.001,3.235,1.947,6.153,4.936,7.392c0.971,0.405,2.012,0.611,3.064,0.608c2.122,0,4.156-0.844,5.656-2.344L419.312,328H496    c8.837,0,16-7.163,16-16V136C512,127.163,504.837,120,496,120z" fill="#888888"/>
	</g>
</g>
<g>
	<g>
		<path d="M320,0H16C7.163,0,0,7.163,0,16v176c0,8.837,7.163,16,16,16h52.688l45.656,45.656c1.5,1.5,3.534,2.344,5.656,2.344    c1.052,0.003,2.093-0.203,3.064-0.608c2.989-1.239,4.937-4.157,4.936-7.392v-40h192c8.837,0,16-7.163,16-16V16    C336,7.163,328.837,0,320,0z M320,192H120c-4.418,0-8,3.582-8,8v28.688l-34.344-34.344c-1.5-1.5-3.534-2.344-5.656-2.344H16V16    h304V192z" fill="#888888"/>
	</g>
</g>
<g>
	<g>
		<path d="M296,32H40c-4.418,0-8,3.582-8,8v32c0,4.418,3.582,8,8,8h256c4.418,0,8-3.582,8-8V40C304,35.582,300.418,32,296,32z     M288,64H48V48h240V64z" fill="#888888"/>
	</g>
</g>
<g>
	<g>
		<rect x="64" y="96" width="208" height="16" fill="#888888"/>
	</g>
</g>
<g>
	<g>
		<rect x="288" y="96" width="16" height="16" fill="#888888"/>
	</g>
</g>
<g>
	<g>
		<rect x="32" y="128" width="272" height="16" fill="#888888"/>
	</g>
</g>
<g>
	<g>
		<rect x="32" y="160" width="272" height="16" fill="#888888"/>
	</g>
</g>
<g>
	<g>
		<path d="M472,152H360v16h104v16H360v16h112c4.418,0,8-3.582,8-8v-32C480,155.582,476.418,152,472,152z" fill="#888888"/>
	</g>
</g>
<g>
	<g>
		<rect x="464" y="216" width="16" height="16" fill="#888888"/>
	</g>
</g>
<g>
	<g>
		<rect x="360" y="216" width="88" height="16" fill="#888888"/>
	</g>
</g>
<g>
	<g>
		<rect x="336" y="248" width="144" height="16" fill="#888888"/>
	</g>
</g>
<g>
	<g>
		<rect x="336" y="280" width="144" height="16" fill="#888888"/>
	</g>
</g>
<g>
	<g>
		<path d="M120,272c-13.255,0-24,10.745-24,24s10.745,24,24,24s24-10.745,24-24S133.255,272,120,272z M120,304c-4.418,0-8-3.582-8-8    c0-4.418,3.582-8,8-8c4.418,0,8,3.582,8,8C128,300.418,124.418,304,120,304z" fill="#888888"/>
	</g>
</g>
<g>
	<g>
		<path d="M400,384c-13.255,0-24,10.745-24,24s10.745,24,24,24s24-10.745,24-24S413.255,384,400,384z M400,416c-4.418,0-8-3.582-8-8    c0-4.418,3.582-8,8-8c4.418,0,8,3.582,8,8C408,412.418,404.418,416,400,416z" fill="#888888"/>
	</g>
</g>
<g>
</g>
<g>
</g>
<g>
</g>
<g>
</g>
<g>
</g>
<g>
</g>
<g>
</g>
<g>
</g>
<g>
</g>
<g>
</g>
<g>
</g>
<g>
</g>
<g>
</g>
<g>
</g>
<g>
</g>
</svg>
