<?xml version="1.0" encoding="iso-8859-1"?>
<!-- Generator: Adobe Illustrator 19.0.0, SVG Export Plug-In . SVG Version: 6.00 Build 0)  -->
<svg xmlns="http://www.w3.org/2000/svg" xmlns:xlink="http://www.w3.org/1999/xlink" version="1.1" id="Capa_1" x="0px" y="0px" viewBox="0 0 480 480" style="enable-background:new 0 0 480 480;" xml:space="preserve" width="512px" height="512px">
<g>
	<g>
		<path d="M230.408,51.128l-14.976-8.176c-4.496-2.464-9.944-2.608-14.576-0.4L166.624,58.92l-41.584-24.6    c-1.776-1.048-3.904-1.384-5.888-0.904l-32,7.472c-2.824,0.656-5.072,2.792-5.872,5.576c-0.8,2.784-0.032,5.784,2,7.84    l29.896,30.168L90.496,95.32L50.8,80.504c-3.088-1.16-6.552-0.304-8.744,2.152c-2.2,2.44-2.672,5.984-1.208,8.92l23.992,48    C66.2,142.288,68.968,144,72,144h24c1.368,0,2.712-0.352,3.904-1.016l29.936-16.752l-1.824,25.184    c-0.208,2.864,1.144,5.624,3.528,7.224c1.344,0.904,2.896,1.36,4.456,1.36c1.224,0,2.448-0.28,3.576-0.84l32-16    c2.032-1.016,3.544-2.856,4.144-5.056l9.952-36.544l44.224-22.072c5.352-2.68,8.736-8.056,8.848-14.032    C238.848,59.48,235.656,53.984,230.408,51.128z M104.728,53.208l14.936-3.488l29.592,17.496l-20.776,9.936L104.728,53.208z     M175.312,88.856c-2.04,1.016-3.544,2.856-4.144,5.056l-9.952,36.544l-16.232,8.12l1.88-25.984c0.208-2.936-1.2-5.752-3.688-7.328    c-1.304-0.84-2.792-1.264-4.288-1.264c-1.344,0-2.688,0.336-3.904,1.016L93.912,128H76.944L64.24,102.6l23.856,8.896    c2.024,0.768,4.288,0.648,6.248-0.272l35.888-17.16h0.008l39.44-18.856c0.008,0,0.008-0.008,0.008-0.008L207.752,57l14.984,8.184    L175.312,88.856z" fill="#888888"/>
	</g>
</g>
<g>
	<g>
		<path d="M211.664,293.128c-0.056-0.072-0.056-0.168-0.112-0.232c-0.136-0.168-0.288-0.312-0.424-0.48    c-2.08-2.616-4.264-5.136-6.6-7.52c-0.12-0.12-0.224-0.256-0.336-0.376c-2.408-2.432-4.952-4.736-7.608-6.904    c-0.912-0.744-1.88-1.4-2.816-2.104c-1.688-1.28-3.384-2.552-5.16-3.72c-1.328-0.88-2.704-1.672-4.08-2.48    c-1.488-0.88-2.984-1.736-4.52-2.536c-1.48-0.768-2.984-1.488-4.504-2.176c-1.552-0.704-3.128-1.36-4.728-1.984    c-1.52-0.592-3.04-1.168-4.584-1.68c-1.752-0.584-3.544-1.08-5.344-1.56c-1.448-0.384-2.88-0.8-4.352-1.12    c-2.12-0.464-4.288-0.792-6.464-1.112c-1.208-0.176-2.4-0.424-3.616-0.552C142.984,256.216,139.52,256,136,256    s-6.984,0.216-10.408,0.592c-1.216,0.128-2.408,0.376-3.616,0.552c-2.176,0.32-4.336,0.648-6.464,1.112    c-1.472,0.32-2.904,0.736-4.352,1.12c-1.8,0.48-3.584,0.976-5.344,1.56c-1.552,0.512-3.072,1.088-4.584,1.68    c-1.6,0.624-3.176,1.28-4.728,1.984c-1.52,0.688-3.024,1.408-4.504,2.176c-1.536,0.8-3.032,1.656-4.52,2.536    c-1.368,0.808-2.744,1.6-4.08,2.48c-1.776,1.168-3.472,2.44-5.16,3.72c-0.936,0.712-1.904,1.36-2.816,2.104    c-2.656,2.168-5.192,4.472-7.608,6.904c-0.12,0.12-0.224,0.256-0.336,0.376c-2.336,2.384-4.52,4.904-6.6,7.52    c-0.136,0.168-0.288,0.312-0.424,0.48c-0.056,0.072-0.064,0.16-0.112,0.232C47.64,309.4,40,329.808,40,352    c0,22.84,8.048,43.816,21.408,60.312c0.048,0.064,0.056,0.152,0.104,0.216c0.096,0.12,0.208,0.216,0.304,0.336    c2.048,2.496,4.224,4.888,6.512,7.16c1.104,1.104,2.296,2.088,3.44,3.128c1.288,1.16,2.552,2.336,3.896,3.432    c1.376,1.12,2.816,2.144,4.248,3.176c1.232,0.888,2.456,1.776,3.728,2.608c1.504,0.984,3.032,1.896,4.584,2.784    c1.328,0.768,2.672,1.504,4.04,2.208c1.544,0.792,3.096,1.552,4.672,2.256c1.512,0.68,3.056,1.288,4.608,1.888    c1.512,0.584,3.008,1.168,4.552,1.672c1.776,0.584,3.584,1.064,5.4,1.544c1.4,0.368,2.776,0.776,4.2,1.08    c2.152,0.464,4.36,0.792,6.56,1.104c1.144,0.168,2.272,0.4,3.432,0.528c3.4,0.36,6.832,0.568,10.312,0.568    s6.912-0.208,10.304-0.576c1.152-0.12,2.28-0.36,3.432-0.528c2.208-0.32,4.408-0.64,6.56-1.104c1.416-0.304,2.8-0.712,4.2-1.08    c1.816-0.48,3.632-0.96,5.4-1.544c1.536-0.504,3.04-1.088,4.552-1.672c1.552-0.6,3.096-1.208,4.608-1.888    c1.584-0.704,3.136-1.464,4.672-2.256c1.368-0.704,2.712-1.44,4.04-2.208c1.552-0.896,3.08-1.808,4.584-2.784    c1.272-0.832,2.496-1.72,3.728-2.608c1.432-1.04,2.864-2.056,4.248-3.176c1.344-1.088,2.608-2.272,3.896-3.432    c1.152-1.04,2.336-2.024,3.44-3.128c2.288-2.28,4.464-4.664,6.512-7.16c0.096-0.12,0.208-0.216,0.304-0.336    c0.048-0.064,0.056-0.152,0.104-0.216C223.952,395.816,232,374.84,232,352C232,329.808,224.36,309.4,211.664,293.128z     M85.408,290.104c0.816-0.68,1.696-1.272,2.544-1.912c1.168-0.888,2.32-1.8,3.528-2.616c1.576-1.056,3.216-2.016,4.864-2.96    c0.36-0.208,0.704-0.44,1.064-0.632c-3.088,4.992-5.856,10.552-8.2,16.664c-3.336-1.024-6.552-2.128-9.528-3.36    C81.512,293.456,83.424,291.736,85.408,290.104z M69.2,308.104c4.664,2.208,9.792,4.144,15.24,5.832    c-2.368,9.656-3.808,20.192-4.24,31.272H56.344C57.496,331.584,62.056,318.928,69.2,308.104z M70.288,397.504    c-7.328-10.552-12.176-22.92-13.712-36.304h23.688c0.584,11.048,2.248,21.456,4.768,31.024    C79.864,393.752,74.92,395.504,70.288,397.504z M96.512,421.488c-1.576-0.904-3.128-1.824-4.632-2.816    c-0.64-0.424-1.264-0.888-1.888-1.336c-1.432-1.008-2.84-2.048-4.2-3.144c-0.68-0.552-1.344-1.144-2.008-1.72    c-0.832-0.72-1.64-1.472-2.448-2.224c2.768-1.04,5.76-1.896,8.736-2.768c2.144,5.272,4.6,10.112,7.312,14.504    C97.088,421.824,96.8,421.648,96.512,421.488z M128,430.312c-8.72-3.704-16.472-13.328-22.176-26.544    c7.08-1.232,14.536-1.92,22.176-2.248V430.312z M128,385.4c-9.464,0.376-18.656,1.424-27.408,3.08    c-2.216-8.392-3.704-17.592-4.288-27.28H128V385.4z M128,345.2H96.176c0.432-9.696,1.784-18.936,3.856-27.416    c8.856,1.728,18.248,2.824,27.968,3.208V345.2z M128,305.024c-7.984-0.352-15.76-1.232-23.112-2.576    c5.776-14.36,13.912-24.848,23.112-28.76V305.024z M202.808,308.096c7.144,10.832,11.696,23.48,12.856,37.104h-23.856    c-0.432-11.08-1.872-21.616-4.24-31.272C193.016,312.248,198.136,310.312,202.808,308.096z M175.664,282.616    c1.64,0.944,3.288,1.904,4.856,2.96c1.208,0.816,2.36,1.728,3.528,2.616c0.848,0.64,1.728,1.24,2.552,1.912    c1.976,1.632,3.896,3.352,5.728,5.184c-2.968,1.24-6.192,2.336-9.528,3.36c-2.344-6.112-5.112-11.672-8.2-16.664    C174.96,282.184,175.304,282.416,175.664,282.616z M144,273.688c9.2,3.912,17.336,14.4,23.112,28.76    c-7.352,1.336-15.128,2.224-23.112,2.576V273.688z M144,320.992c9.72-0.384,19.112-1.48,27.96-3.208    c2.072,8.48,3.432,17.72,3.856,27.416H144V320.992z M144,430.312V401.52c7.64,0.328,15.096,1.016,22.176,2.248    C160.472,416.984,152.712,426.608,144,430.312z M144,385.4v-24.2h31.696c-0.584,9.68-2.072,18.888-4.288,27.28    C162.656,386.824,153.464,385.776,144,385.4z M188.216,412.472c-0.664,0.576-1.32,1.168-2.008,1.72    c-1.36,1.104-2.768,2.136-4.2,3.144c-0.632,0.448-1.248,0.904-1.888,1.336c-1.504,1-3.056,1.92-4.624,2.816    c-0.288,0.168-0.584,0.336-0.872,0.496c2.712-4.392,5.168-9.24,7.312-14.504c2.976,0.872,5.96,1.728,8.736,2.768    C189.864,411,189.056,411.752,188.216,412.472z M201.72,397.504c-4.64-2-9.576-3.744-14.744-5.28    c2.52-9.568,4.184-19.976,4.768-31.024h23.688C213.888,374.584,209.04,386.952,201.72,397.504z" fill="#888888"/>
	</g>
</g>
<g>
	<g>
		<path d="M472,16H272V8c0-4.424-3.584-8-8-8H8C3.584,0,0,3.576,0,8v464c0,4.424,3.584,8,8,8h256c4.416,0,8-3.576,8-8v-8h200    c4.416,0,8-3.576,8-8V24C480,19.576,476.416,16,472,16z M256,464H16V16h240V464z M464,448H272V32h192V448z" fill="#888888"/>
	</g>
</g>
<g>
	<g>
		<path d="M200,176H56c-4.408,0-8-3.584-8-8v-8H32v8c0,13.232,10.768,24,24,24h144c4.408,0,8,3.584,8,8s-3.592,8-8,8h-48    c-13.232,0-24,10.768-24,24v8h16v-8c0-4.416,3.592-8,8-8h48c13.232,0,24-10.768,24-24S213.232,176,200,176z" fill="#888888"/>
	</g>
</g>
<g>
	<g>
		<rect x="32" y="128" width="16" height="16" fill="#888888"/>
	</g>
</g>
<g>
	<g>
		<path d="M360,80c-13.232,0-24,10.768-24,24s10.768,24,24,24s24-10.768,24-24S373.232,80,360,80z M360,112c-4.408,0-8-3.584-8-8    s3.592-8,8-8c4.408,0,8,3.584,8,8S364.408,112,360,112z" fill="#888888"/>
	</g>
</g>
<g>
	<g>
		<path d="M440,48H296c-4.416,0-8,3.576-8,8v168c0,4.424,3.584,8,8,8h144c4.416,0,8-3.576,8-8V56C448,51.576,444.416,48,440,48z     M432,216H304v-16h56h72V216z M310.952,184L328,158.424L345.048,184H310.952z M374.432,184L400,143.096L425.568,184H374.432z     M432,164.104l-25.216-40.344c-2.928-4.672-10.64-4.672-13.568,0l-33.432,53.496l-25.128-37.688    c-2.968-4.456-10.344-4.456-13.312,0L304,165.576V64h128V164.104z" fill="#888888"/>
	</g>
</g>
<g>
	<g>
		<rect x="296" y="296" width="144" height="16" fill="#888888"/>
	</g>
</g>
<g>
	<g>
		<rect x="296.96" y="336" width="144" height="16" fill="#888888"/>
	</g>
</g>
<g>
	<g>
		<rect x="296" y="376" width="144" height="16" fill="#888888"/>
	</g>
</g>
<g>
	<g>
		<rect x="328" y="416" width="16" height="16" fill="#888888"/>
	</g>
</g>
<g>
	<g>
		<rect x="360" y="416" width="16" height="16" fill="#888888"/>
	</g>
</g>
<g>
	<g>
		<rect x="392" y="416" width="16" height="16" fill="#888888"/>
	</g>
</g>
<g>
	<g>
		<rect x="320" y="256" width="96" height="16" fill="#888888"/>
	</g>
</g>
<g>
</g>
<g>
</g>
<g>
</g>
<g>
</g>
<g>
</g>
<g>
</g>
<g>
</g>
<g>
</g>
<g>
</g>
<g>
</g>
<g>
</g>
<g>
</g>
<g>
</g>
<g>
</g>
<g>
</g>
</svg>
